<svg width="24" height="24" viewBox="0 0 24 24" fill="none" xmlns="http://www.w3.org/2000/svg">
<path d="M17 6C17.5523 6 18 6.44772 18 7V17C18 17.5523 17.5523 18 17 18C16.4477 18 16 17.5523 16 17V7C16 6.44772 16.4477 6 17 6ZM10.375 7.21875C10.6752 6.97861 11.0871 6.93211 11.4336 7.09863C11.7799 7.26521 12 7.61571 12 8V16C12 16.3843 11.7799 16.7348 11.4336 16.9014C11.0871 17.0679 10.6752 17.0214 10.375 16.7812L5.375 12.7812C5.13778 12.5915 5 12.3038 5 12C5 11.6962 5.13779 11.4085 5.375 11.2188L10.375 7.21875ZM7.60156 12L10 13.9189V10.082L7.60156 12Z" fill="black"/>
</svg>
